# xmcd CD database file
#
# Track frame offsets:
#	150
#	17640
#	33805
#	52870
#	75430
#	92922
#	117335
#	135155
#	153852
#	174552
#	197315
#	209662
#	239155
#
# Disc length: 4440 seconds
#
# Revision: 0
# Processed by: cddbd v1.5.1PL0 Copyright (c) Steve Scherf et al.
# Submitted via: CDex 1.51
#
DISCID=9b11560d
DTITLE=Minnie Driver - Everything I've Got in My Pocket
DYEAR=2004
DGENRE=Pop
TTITLE0=Everything I've Got in My Pocket
TTITLE1=Invisible Girl
TTITLE2=Fast as You Can
TTITLE3=Living on a Wire
TTITLE4=Home
TTITLE5=Deeper Water
TTITLE6=So Well
TTITLE7=Hungry Heart
TTITLE8=Down
TTITLE9=Yellow Heart
TTITLE10=Ruby Adeline
TTITLE11=Complicated Man
TTITLE12=Data Track
EXTD=YEAR: 2004
EXTT0=
EXTT1=
EXTT2=
EXTT3=
EXTT4=
EXTT5=
EXTT6=
EXTT7=
EXTT8=
EXTT9=
EXTT10=
EXTT11=
EXTT12=
PLAYORDER=
